<svg viewBox="0 0 400 300" xmlns="http://www.w3.org/2000/svg">
  <defs>
    <linearGradient id="bgGrad2" x1="0%" y1="0%" x2="100%" y2="100%">
      <stop offset="0%" style="stop-color:#12121a"/>
      <stop offset="100%" style="stop-color:#1a1a25"/>
    </linearGradient>
  </defs>
  
  <!-- Background -->
  <rect width="400" height="300" fill="url(#bgGrad2)"/>
  
  <!-- Satellite texture pattern -->
  <g opacity="0.15">
    <rect x="0" y="0" width="400" height="300" fill="#d4a574"/>
  </g>
  
  <!-- Grid streets -->
  <g stroke="#2a2a3a" stroke-width="8" opacity="0.6">
    <line x1="0" y1="75" x2="400" y2="75"/>
    <line x1="0" y1="150" x2="400" y2="150"/>
    <line x1="0" y1="225" x2="400" y2="225"/>
    <line x1="100" y1="0" x2="100" y2="300"/>
    <line x1="200" y1="0" x2="200" y2="300"/>
    <line x1="300" y1="0" x2="300" y2="300"/>
  </g>
  
  <!-- Building blocks (rooftops) -->
  <g fill="#4b5563" opacity="0.7">
    <rect x="15" y="15" width="70" height="45" rx="1"/>
    <rect x="115" y="10" width="75" height="55" rx="1"/>
    <rect x="215" y="15" width="70" height="45" rx="1"/>
    <rect x="310" y="10" width="75" height="50" rx="1"/>
    
    <rect x="20" y="90" width="65" height="45" rx="1"/>
    <rect x="120" y="85" width="70" height="55" rx="1"/>
    <rect x="220" y="90" width="65" height="45" rx="1"/>
    <rect x="315" y="85" width="70" height="50" rx="1"/>
    
    <rect x="15" y="165" width="75" height="45" rx="1"/>
    <rect x="115" y="160" width="75" height="55" rx="1"/>
    <rect x="215" y="165" width="70" height="45" rx="1"/>
    <rect x="310" y="160" width="80" height="55" rx="1"/>
    
    <rect x="20" y="240" width="70" height="50" rx="1"/>
    <rect x="120" y="235" width="70" height="55" rx="1"/>
    <rect x="220" y="240" width="65" height="50" rx="1"/>
    <rect x="315" y="235" width="70" height="55" rx="1"/>
  </g>
  
  <!-- Rooftanks (small cylinders on roofs) -->
  <g fill="#60a5fa" opacity="0.8">
    <circle cx="55" cy="35" r="8"/>
    <circle cx="155" cy="40" r="9"/>
    <circle cx="340" cy="30" r="10"/>
    <circle cx="55" cy="110" r="7"/>
    <circle cx="175" cy="105" r="9"/>
    <circle cx="255" cy="115" r="8"/>
    <circle cx="350" cy="108" r="9"/>
    <circle cx="45" cy="185" r="9"/>
    <circle cx="165" cy="180" r="10"/>
    <circle cx="260" cy="190" r="8"/>
    <circle cx="375" cy="185" r="8"/>
    <circle cx="55" cy="260" r="8"/>
    <circle cx="170" cy="265" r="9"/>
    <circle cx="350" cy="260" r="10"/>
  </g>
  
  <!-- Bounding boxes (detection) -->
  <g fill="none" stroke="#22c55e" stroke-width="2">
    <rect x="43" y="23" width="24" height="24" rx="2"/>
    <rect x="142" y="27" width="26" height="26" rx="2"/>
    <rect x="326" y="16" width="28" height="28" rx="2"/>
    <rect x="44" y="99" width="22" height="22" rx="2"/>
    <rect x="162" y="92" width="26" height="26" rx="2"/>
    <rect x="243" y="103" width="24" height="24" rx="2"/>
    <rect x="337" y="95" width="26" height="26" rx="2"/>
    <rect x="32" y="172" width="26" height="26" rx="2"/>
    <rect x="151" y="166" width="28" height="28" rx="2"/>
    <rect x="248" y="178" width="24" height="24" rx="2"/>
    <rect x="363" y="173" width="24" height="24" rx="2"/>
    <rect x="43" y="248" width="24" height="24" rx="2"/>
    <rect x="157" y="252" width="26" height="26" rx="2"/>
    <rect x="336" y="246" width="28" height="28" rx="2"/>
  </g>
  
  <!-- Confidence labels -->
  <g font-family="monospace" font-size="8" fill="#22c55e">
    <text x="43" y="20">.94</text>
    <text x="142" y="24">.91</text>
    <text x="326" y="13">.89</text>
    <text x="162" y="89">.93</text>
    <text x="337" y="92">.90</text>
    <text x="151" y="163">.95</text>
    <text x="336" y="243">.92</text>
  </g>
  
  <!-- Label overlay -->
  <rect x="15" y="255" width="100" height="30" fill="#12121a" opacity="0.9" rx="4"/>
  <text x="25" y="275" font-family="monospace" font-size="11" fill="#a855f7">DETECTION</text>
  
  <!-- mAP indicator -->
  <rect x="280" y="255" width="105" height="30" fill="#12121a" opacity="0.9" rx="4"/>
  <text x="290" y="275" font-family="monospace" font-size="11" fill="#22c55e">90% mAP50</text>
</svg>
